<svg width="1080" height="1080" viewBox="0 0 1080 1080" fill="none" xmlns="http://www.w3.org/2000/svg">
<path fill-rule="evenodd" clip-rule="evenodd" d="M618.55 187.798C724.643 211.218 790.989 299.354 872.578 366.135C944.512 425.014 1036.54 470.059 1066.41 554.373C1096.29 638.743 1073.58 732.632 1030.51 812.009C991.36 884.171 917.019 931.089 840.65 970.475C772.151 1005.8 695.498 1040.2 618.55 1054.44C517.564 1073.13 419.157 1094.38 320.618 1066.73C203.557 1033.89 92.626 963.736 39.6172 862.037C-16.4588 754.457 -7.36778 626.526 31.8769 512.778C71.288 398.548 146.127 292.088 257.556 230.363C364.157 171.312 497.615 161.1 618.55 187.798Z" fill="white" fill-opacity="0.05"/>
<path d="M583.231 70.7094L803.44 96.8414V842.366L583.231 848.516V70.7094Z" fill="#171D4C"/>
<path d="M161.038 169.088L499.704 47.6521V846.979L161.038 783.956V169.088Z" fill="#171D4C"/>
<path d="M552.858 67.6352H498.186V839.292H552.858V67.6352Z" fill="#5B66B9"/>
<path d="M413.14 879.259L399.47 868.499L467.81 880.796L486.034 868.499L514.891 899.242L413.14 879.259Z" fill="#6370D5"/>
<path d="M399.47 868.499L347.837 826.996L490.592 850.053L487.555 866.962L467.813 880.795L399.47 868.499Z" fill="#5B66B9"/>
<path d="M473.886 106.065L489.073 58.4123L510.334 75.3214V838.564L489.073 853.129L473.886 819.31V106.065Z" fill="#B73493"/>
<path d="M536.152 820.846V95.3046L510.334 78.3955L489.073 58.4125L501.222 27.6691L581.713 79.9328V848.516L536.152 820.846Z" fill="#444F95"/>
<path d="M800.4 833.146L806.535 105.412L785.682 88.7345L763.952 66.098L771.546 59.9494L827.737 116.825L832.294 807.371L822.482 833.146H800.4Z" fill="#444F95"/>
<path d="M536.152 190.609L510.334 215.204V202.906L536.152 178.312V190.609Z" fill="#8892E2"/>
<path d="M536.152 293.599L510.334 273.616V265.93L536.152 285.913V293.599Z" fill="#8892E2"/>
<path d="M536.152 407.348L510.334 428.868V419.648L536.152 398.125V407.348Z" fill="#8892E2"/>
<path d="M536.152 516.49L510.334 491.894V482.671L536.152 505.727V516.49Z" fill="#8892E2"/>
<path d="M536.152 628.702L510.334 648.685V639.462L536.152 619.479V628.702Z" fill="#8892E2"/>
<path d="M536.152 737.841L510.334 714.784V705.561L536.152 727.081V737.841Z" fill="#8892E2"/>
<path d="M524.004 29.2063C518.434 29.2063 502.438 27.6691 501.222 27.6691L581.713 80.8258V848.516H602.973V83.0071L524.004 29.2063Z" fill="#ED247E"/>
<path d="M704.725 26.132L791.288 99.916L795.846 833.146L818.625 830.07V112.213L766.991 61.4869L730.543 27.6692C716.873 21.5204 716.873 21.5204 704.725 26.132Z" fill="#B73493"/>
<path d="M602.973 848.516H581.713L517.928 899.242H540.707L602.973 848.516Z" fill="#717CD1"/>
<path d="M581.713 848.516L516.41 900.779L486.034 866.962V854.666L536.152 820.846L581.713 848.516Z" fill="#727EDA"/>
<path d="M536.152 178.312L510.334 202.906V182.923L536.152 159.866V178.312Z" fill="#717AC5"/>
<path d="M536.152 312.046L510.334 293.599V273.615L536.152 293.599V312.046Z" fill="#717AC5"/>
<path d="M536.152 398.128L510.334 419.648V401.202L536.152 379.682V398.128Z" fill="#717AC5"/>
<path d="M536.152 533.397L510.334 511.877V491.894L536.152 514.95V533.397Z" fill="#717AC5"/>
<path d="M536.152 619.479L510.334 639.462V621.015L536.152 601.032V619.479Z" fill="#717AC5"/>
<path d="M536.152 756.287L510.334 731.691V713.245L536.152 737.841V756.287Z" fill="#717AC5"/>
<path d="M622.715 862.352L581.712 865.426L602.973 848.516L645.497 843.906L782.176 831.606L780.658 850.053L622.715 862.352Z" fill="#8892E2"/>
<path d="M596.897 890.019L554.376 888.482L581.713 865.426L622.716 860.812L759.397 851.589L757.879 866.962L596.897 890.019Z" fill="#717AC5"/>
<path d="M645.497 843.906L601.455 848.516L581.712 865.426L624.234 862.352L645.497 843.906Z" fill="#5A65BB"/>
<path d="M782.176 850.053L625.755 860.813L595.38 890.019L753.322 877.722L782.176 850.053Z" fill="#444F95"/>
<path d="M804.958 831.606L782.176 833.146L780.658 850.053H782.176L804.958 831.606Z" fill="#5A65BB"/>
<path d="M473.885 817.773L173.188 771.657L174.707 797.79L489.073 851.589L473.885 817.773Z" fill="#E12AAF"/>
<path d="M151.927 820.846L156.483 793.177L267.346 813.163L227.861 837.756L151.927 820.846Z" fill="#5B66B9"/>
<path d="M647.016 89.1559L602.973 83.0073V102.99L647.016 107.602L771.546 121.436H791.288V102.99H771.546L647.016 89.1559Z" fill="#5B66B9"/>
<path d="M773.064 121.436V102.99H791.288V121.436H773.064Z" fill="#4E5591"/>
<path d="M602.973 102.99V83.0073L645.498 89.1559V107.602L602.973 102.99Z" fill="#4E5591"/>
<path d="M645.497 822.386C633.346 825.46 605.405 828.533 602.973 828.533V848.516L645.497 843.906L779.14 834.683L798.882 833.146V814.7L779.14 813.163L645.497 822.386Z" fill="#5B66B9"/>
<path d="M777.621 834.683V813.163L798.882 814.7V833.146L777.621 834.683Z" fill="#4E5591"/>
<path d="M601.455 848.516V826.996L645.497 822.383V843.906L601.455 848.516Z" fill="#4E5591"/>
<path d="M586.267 52.2637L504.258 0H546.782L634.864 55.338L622.716 86.0812L604.492 84.5443L578.673 66.0982L586.267 52.2637Z" fill="#5B66B9"/>
<path d="M634.864 55.3379C619.679 54.3132 587.483 52.2636 586.267 52.2636L581.712 59.9492L631.828 63.0235L634.864 55.3379Z" fill="#4E5591"/>
<path d="M493.628 1.53717L504.258 0L586.267 52.2637L578.673 67.6355L522.482 29.2062H507.686L492.11 10.7602L493.628 1.53717Z" fill="#444F95"/>
<path d="M766.991 76.8587L715.355 27.6693L557.412 6.34485L634.864 55.3384L631.828 63.024L766.991 76.8587Z" fill="#444F95"/>
<path d="M766.991 76.8584L631.828 63.0239L622.716 86.0813L754.843 102.462L766.991 76.8584Z" fill="#717AC5"/>
<path d="M791.288 99.9157L766.991 76.8583L754.84 101.453L773.064 102.99H791.288V99.9157Z" fill="#37408A"/>
<path d="M773.067 880.796L823.182 830.07C817.603 830.474 807.257 831.196 801.921 831.483L748.767 880.796H773.067Z" fill="#8892E2"/>
<path d="M194.45 93.7672C181.794 110.676 156.179 145.109 154.964 147.568V159.866L170.151 181.386L473.886 106.065L504.258 29.2063H514.892L492.11 3.07443L194.45 93.7672Z" fill="#787FB9"/>
<path d="M486.877 70.9714L154.286 163.201L167.954 184.722L473.207 106.326L486.877 70.9714Z" fill="#ED247E"/>
<path d="M156.483 794.716L154.964 161.403L180.781 181.386V794.716H156.483Z" fill="#DF3C85"/>
<path d="M277.977 851.592L197.414 841.422L156.02 820.436L226.69 836.457L267.346 813.163L276.458 826.524L277.977 851.592Z" fill="#6370D5"/>
<path d="M314.425 820.846L264.308 813.163L276.458 826.996L277.976 851.592L291.645 850.053L314.425 820.846Z" fill="#5B66B9"/>
<path d="M700.448 513.383H691.635C686.257 513.383 681.098 511.047 677.293 506.887C673.488 502.728 671.35 497.087 671.35 491.206C671.356 485.914 673.143 480.807 676.367 476.863C679.595 472.917 684.035 470.408 688.846 469.812V436.545C688.846 434.719 688.182 432.969 687.001 431.679C685.822 430.389 684.22 429.664 682.551 429.664C680.882 429.664 679.28 430.389 678.101 431.679C676.92 432.969 676.259 434.719 676.259 436.545V472.448C676.259 473.163 675.997 473.852 675.534 474.358C675.071 474.864 674.442 475.148 673.784 475.148C673.13 475.148 672.501 474.864 672.038 474.358C671.575 473.852 671.313 473.163 671.313 472.448V436.545C671.313 433.287 672.498 430.161 674.605 427.856C676.713 425.554 679.57 424.258 682.551 424.258C685.532 424.258 688.389 425.554 690.497 427.856C692.604 430.161 693.789 433.287 693.789 436.545V469.723H700.448C701.932 469.677 703.41 469.957 704.796 470.547C706.181 471.136 707.443 472.022 708.508 473.154C709.573 474.287 710.421 475.641 710.998 477.138C711.578 478.634 711.874 480.242 711.874 481.865C711.874 483.491 711.578 485.099 710.998 486.596C710.421 488.089 709.573 489.444 708.508 490.576C707.443 491.709 706.181 492.594 704.796 493.184C703.41 493.773 701.932 494.054 700.448 494.007H699.954C697.011 494.001 694.19 492.721 692.107 490.447C690.025 488.172 688.852 485.09 688.846 481.871V475.33C685.353 475.904 682.165 477.829 679.863 480.757C677.561 483.686 676.296 487.423 676.302 491.286C676.309 495.729 677.925 499.991 680.798 503.132C683.674 506.276 687.571 508.044 691.635 508.047H700.448C706.721 508.047 712.735 505.326 717.17 500.475C721.607 495.624 724.097 489.049 724.097 482.189C724.097 475.333 721.607 468.754 717.17 463.903C712.735 459.056 706.721 456.331 700.448 456.331C699.791 456.331 699.161 456.047 698.698 455.538C698.236 455.032 697.976 454.344 697.976 453.628C697.976 452.912 698.236 452.224 698.698 451.718C699.161 451.209 699.791 450.925 700.448 450.925C708.027 450.925 715.293 454.217 720.653 460.077C726.013 465.937 729.025 473.882 729.025 482.171C729.025 490.456 726.013 498.405 720.653 504.261C715.293 510.121 708.027 513.414 700.448 513.414V513.383ZM693.817 475.129V481.871C693.82 483.658 694.468 485.367 695.625 486.629C696.782 487.895 698.347 488.601 699.982 488.601H700.476C702.068 488.536 703.574 487.796 704.682 486.54C705.786 485.284 706.404 483.609 706.404 481.865C706.404 480.122 705.786 478.446 704.682 477.19C703.574 475.934 702.068 475.197 700.476 475.129H693.817Z" fill="url(#paint0_linear)"/>
<defs>
<linearGradient id="paint0_linear" x1="714.584" y1="520.514" x2="667.906" y2="426.023" gradientUnits="userSpaceOnUse">
<stop stop-color="#81449A"/>
<stop offset="1" stop-color="#ED247E"/>
</linearGradient>
</defs>
</svg>
