<svg xmlns="http://www.w3.org/2000/svg" xmlns:xlink="http://www.w3.org/1999/xlink" viewBox="0 0 459.35 89.37"><defs><style>.cls-1{fill:url(#linear-gradient);}.cls-2{fill:#fff;}</style><linearGradient id="linear-gradient" x1="-646.56" y1="98.85" x2="-690.79" y2="196.74" gradientTransform="matrix(1, 0, 0, -1, 694, 195.37)" gradientUnits="userSpaceOnUse"><stop offset="0" stop-color="#81449a"/><stop offset="1" stop-color="#ed247e"/></linearGradient></defs><g id="Layer_2" data-name="Layer 2"><g id="Layer_1-2" data-name="Layer 1"><path class="cls-1" d="M31.94,89.37H22.28A22.23,22.23,0,0,1,.05,67.14,21.61,21.61,0,0,1,19.23,45.7V12.32a6.91,6.91,0,0,0-13.81,0v36A2.73,2.73,0,0,1,2.71,51,2.73,2.73,0,0,1,0,48.31v-36a12.33,12.33,0,0,1,24.65,0V45.6h7.29a12.18,12.18,0,1,1,0,24.35H31.4A12.2,12.2,0,0,1,19.23,57.78V51.22a16.15,16.15,0,0,0-13.76,16A16.83,16.83,0,0,0,22.28,84h9.66a25.93,25.93,0,0,0,0-51.86,2.71,2.71,0,0,1,0-5.42,31.33,31.33,0,1,1,0,62.65ZM24.65,51v6.76a6.77,6.77,0,0,0,6.75,6.75h.54a6.76,6.76,0,1,0,0-13.51Z"/><path class="cls-2" d="M81.87,73.6V17H102.6a16.25,16.25,0,0,1,12,4.87,15.62,15.62,0,0,1,4.86,11.56A13,13,0,0,1,115,43.53q8.37,4.15,8.37,13.4a15.77,15.77,0,0,1-5,11.89,17.46,17.46,0,0,1-12.53,4.78ZM93.43,63H105a7.37,7.37,0,0,0,5.18-1.75,6.72,6.72,0,0,0,0-9.41A7.15,7.15,0,0,0,105,50H93.43Zm0-22.81h8.06a6.72,6.72,0,0,0,4.86-1.75,6.17,6.17,0,0,0,1.84-4.55,6,6,0,0,0-1.92-4.47,6.34,6.34,0,0,0-4.78-1.91H93.43Z"/><path class="cls-2" d="M167.36,33.72V73.6H156.44V70.41a13.06,13.06,0,0,1-9.81,4.07q-7.59,0-11.89-4.79t-4.23-12.84V33.72h10.93V55q0,9.48,7.5,9.49,4.55,0,7.5-4.55V33.72Z"/><path class="cls-2" d="M183.31,28.77a6.93,6.93,0,0,1-6.94-6.93A6.5,6.5,0,0,1,178.44,17a6.67,6.67,0,0,1,4.87-2.07A6.58,6.58,0,0,1,188.25,17a6.47,6.47,0,0,1,2.08,4.87,6.95,6.95,0,0,1-7,6.93ZM177.88,73.6V33.72h10.93V73.6Z"/><path class="cls-2" d="M199.3,73.6V15.37h10.93V73.6Z"/><path class="cls-2" d="M237.87,74.48a18.44,18.44,0,0,1-14.19-6.06,21.37,21.37,0,0,1-5.51-14.76A21.09,21.09,0,0,1,223.68,39a18.34,18.34,0,0,1,14.19-6.14,14.11,14.11,0,0,1,10.21,3.75V15.37H259V73.6H248.08V70.65Q244.26,74.47,237.87,74.48Zm1.6-10a10.08,10.08,0,0,0,8.61-4.39v-13a10.15,10.15,0,0,0-8.61-4.31A9.12,9.12,0,0,0,232.29,46a11.07,11.07,0,0,0-2.79,7.66,11.36,11.36,0,0,0,2.79,7.74A9.21,9.21,0,0,0,239.47,64.51Z"/><path class="cls-2" d="M302.75,68.5a21.4,21.4,0,0,1-29.68,0,20.07,20.07,0,0,1-6.14-14.84,20,20,0,0,1,6.14-14.76,21.2,21.2,0,0,1,29.68,0,20,20,0,0,1,6.14,14.76A20.07,20.07,0,0,1,302.75,68.5Zm-14.84-4.23a9.24,9.24,0,0,0,7-2.95,10.7,10.7,0,0,0,2.87-7.66,10.45,10.45,0,0,0-2.87-7.58,9.14,9.14,0,0,0-7-3,9.49,9.49,0,0,0-7.18,3,10.6,10.6,0,0,0-2.79,7.58,10.87,10.87,0,0,0,2.79,7.66A9.61,9.61,0,0,0,287.91,64.27Z"/><path class="cls-2" d="M329.86,74.48q-11.33,0-16.43-7.66l7.49-6.38q2.88,4.62,8.94,4.63a6.25,6.25,0,0,0,3.11-.72,2.32,2.32,0,0,0,1.27-2.15,2.44,2.44,0,0,0-1.11-2.08,12.2,12.2,0,0,0-4.23-1.75L326,57.65a16,16,0,0,1-8.38-4.79,11.38,11.38,0,0,1-2.63-8,11,11,0,0,1,4.31-8.7,16.7,16.7,0,0,1,10.69-3.35q9.17,0,13.8,6.7l-7.18,5.83a8.39,8.39,0,0,0-6.78-3.51,5.26,5.26,0,0,0-2.79.71,2.23,2.23,0,0,0-1.2,2c0,1.59,1.3,2.74,3.91,3.43l3.75,1.11Q345,52.23,345,61.48a11.71,11.71,0,0,1-4.31,9.33A16.1,16.1,0,0,1,329.86,74.48Z"/><path class="cls-2" d="M373.19,74.08q-7,0-11.25-3.67c-2.82-2.45-4.23-6-4.23-10.77V43.29h-9.65V33.72h9.65v-12h10.93v12h12v9.57h-12v14.2q0,3.59,1.44,5.18a6.29,6.29,0,0,0,4.62,1.52,11.53,11.53,0,0,0,5.51-1.36l3.27,8.94A21.48,21.48,0,0,1,373.19,74.08Z"/><path class="cls-2" d="M407,74.48a21.2,21.2,0,0,1-15.15-5.74q-6-5.74-6-15.08a20,20,0,0,1,6-14.84,20.38,20.38,0,0,1,15-6A19.86,19.86,0,0,1,420.81,38q5.67,5.1,5.67,14.43a31.43,31.43,0,0,1-.16,3.75H396.49a8.65,8.65,0,0,0,3.43,6.14,12,12,0,0,0,7.17,2.16q7,0,10.29-5l8.14,6.07Q419.39,74.47,407,74.48ZM396.88,48.8h18.67a8,8,0,0,0-3.27-5.19,9.66,9.66,0,0,0-5.74-1.75,11.34,11.34,0,0,0-6.15,1.75A7.72,7.72,0,0,0,396.88,48.8Z"/><path class="cls-2" d="M434.54,73.6V33.72h10.93v4.79a8.64,8.64,0,0,1,3.59-3.75,11.15,11.15,0,0,1,5.66-1.52,13.6,13.6,0,0,1,4.63.72l-1.68,10.29a8.89,8.89,0,0,0-3.35-.48q-6.13,0-8.85,4.47V73.6Z"/></g></g></svg>