<svg width="126" height="24" viewBox="0 0 126 24" fill="none" xmlns="http://www.w3.org/2000/svg">
<path d="M8.76135 23.1528H6.11155C4.49357 23.1528 2.94187 22.5458 1.79779 21.4653C0.653708 20.3848 0.0109704 18.9193 0.0109704 17.3912C0.0125158 16.0164 0.549606 14.6902 1.51988 13.6654C2.49015 12.6406 3.82576 11.9888 5.27217 11.8342V3.1917C5.27217 2.71761 5.07276 2.26294 4.7178 1.9277C4.36285 1.59247 3.88143 1.40414 3.37945 1.40414C2.87747 1.40414 2.39606 1.59247 2.0411 1.9277C1.68615 2.26294 1.48674 2.71761 1.48674 3.1917V12.5181C1.48674 12.7043 1.40842 12.8829 1.26901 13.0146C1.1296 13.1462 0.940522 13.2202 0.743368 13.2202C0.546214 13.2202 0.357135 13.1462 0.217726 13.0146C0.0783167 12.8829 1.66188e-08 12.7043 0 12.5181V3.1917C0 2.34521 0.356049 1.53339 0.989819 0.934829C1.62359 0.336268 2.48317 0 3.37945 0C4.27574 0 5.13532 0.336268 5.76909 0.934829C6.40286 1.53339 6.75891 2.34521 6.75891 3.1917V11.8109H8.76135C9.20797 11.7988 9.65263 11.8714 10.069 12.0245C10.4854 12.1776 10.865 12.408 11.1855 12.702C11.5059 12.9961 11.7606 13.3479 11.9346 13.7366C12.1085 14.1253 12.1981 14.543 12.1981 14.965C12.1981 15.387 12.1085 15.8047 11.9346 16.1934C11.7606 16.5821 11.5059 16.9339 11.1855 17.228C10.865 17.5221 10.4854 17.7525 10.069 17.9055C9.65263 18.0586 9.20797 18.1312 8.76135 18.1191H8.61322C7.72804 18.1178 6.87948 17.7853 6.25331 17.1943C5.62713 16.6034 5.27434 15.8023 5.27217 14.9663V13.2668C4.22173 13.4159 3.26298 13.9165 2.57066 14.6774C1.87833 15.4382 1.49853 16.4087 1.50046 17.4119C1.50191 18.5665 1.98818 19.6734 2.85262 20.4898C3.71705 21.3062 4.88905 21.7654 6.11155 21.7668H8.76135C10.6478 21.7668 12.4569 21.0591 13.7908 19.7993C15.1247 18.5395 15.8741 16.8308 15.8741 15.0492C15.8741 13.2676 15.1247 11.5589 13.7908 10.2991C12.4569 9.03934 10.6478 8.33159 8.76135 8.33159C8.56419 8.33159 8.37511 8.25763 8.2357 8.12597C8.09629 7.9943 8.01797 7.81573 8.01797 7.62953C8.01797 7.44332 8.09629 7.26475 8.2357 7.13309C8.37511 7.00142 8.56419 6.92745 8.76135 6.92745C11.0406 6.92745 13.2265 7.78259 14.8382 9.30474C16.4499 10.8269 17.3554 12.8914 17.3554 15.044C17.3554 17.1967 16.4499 19.2612 14.8382 20.7833C13.2265 22.3055 11.0406 23.1606 8.76135 23.1606V23.1528ZM6.76714 13.215V14.9663C6.76786 15.4303 6.96355 15.8751 7.31122 16.203C7.65889 16.5308 8.13013 16.715 8.62145 16.715H8.76957C9.24867 16.6976 9.702 16.5056 10.0344 16.1793C10.3669 15.853 10.5526 15.4178 10.5526 14.965C10.5526 14.5122 10.3669 14.077 10.0344 13.7507C9.702 13.4244 9.24867 13.2324 8.76957 13.215H6.76714Z" fill="url(#paint0_linear_347:3157)"/>
<path d="M22.4546 19.0648V4.39379H28.1437C28.7547 4.37943 29.3622 4.48405 29.9286 4.7011C30.4949 4.91816 31.0078 5.24302 31.4354 5.65544C31.8654 6.04014 32.2061 6.50495 32.4361 7.02045C32.666 7.53596 32.7802 8.09094 32.7713 8.65026C32.784 9.14597 32.6808 9.63823 32.4688 10.0919C32.2568 10.5455 31.9414 10.9494 31.5451 11.2746C33.0794 11.9931 33.8456 13.1503 33.8438 14.7461C33.8583 15.3219 33.7436 15.894 33.5072 16.4249C33.2708 16.9559 32.9181 17.4335 32.4723 17.8264C32.0146 18.2365 31.4755 18.557 30.8861 18.7696C30.2967 18.9821 29.6686 19.0824 29.0379 19.0648H22.4546ZM25.6283 16.3186H28.7993C29.3181 16.3443 29.8277 16.1811 30.2229 15.8627C30.5589 15.5363 30.7469 15.099 30.7469 14.6438C30.7469 14.1886 30.5589 13.7513 30.2229 13.4249C29.8337 13.0946 29.3219 12.9232 28.7993 12.9482H25.6283V16.3186ZM25.6283 10.4067H27.8365C28.3278 10.4286 28.8082 10.2656 29.1723 9.95337C29.3368 9.79964 29.4661 9.61575 29.5524 9.41303C29.6388 9.21031 29.6803 8.99304 29.6743 8.77461C29.677 8.55818 29.6318 8.34361 29.5415 8.14465C29.4513 7.94568 29.3181 7.7667 29.1504 7.61917C28.9807 7.45376 28.7759 7.32397 28.5496 7.23827C28.3232 7.15257 28.0802 7.11287 27.8365 7.12176H25.6283V10.4067Z" fill="white"/>
<path d="M45.9077 8.72534V19.0569H42.9095V18.2305C42.5648 18.5753 42.147 18.8474 41.6832 19.0291C41.2195 19.2108 40.7204 19.298 40.2186 19.2849C38.8342 19.2849 37.748 18.8721 36.9598 18.0466C36.1716 17.221 35.7848 16.1113 35.7995 14.7176V8.72534H38.7976V14.2435C38.7976 15.8825 39.4825 16.702 40.8522 16.702C41.6843 16.702 42.37 16.3091 42.9095 15.5233V8.72534H45.9077Z" fill="white"/>
<path d="M50.2802 7.45338C49.7766 7.44932 49.2949 7.2586 48.9388 6.9223C48.5827 6.586 48.3808 6.13104 48.3765 5.65546C48.372 5.41905 48.4205 5.18442 48.5189 4.96697C48.6172 4.74953 48.7631 4.55419 48.9471 4.3938C49.1221 4.2242 49.3314 4.08942 49.5624 3.99738C49.7935 3.90535 50.0417 3.85794 50.2925 3.85794C50.5433 3.85794 50.7916 3.90535 51.0226 3.99738C51.2537 4.08942 51.4629 4.2242 51.638 4.3938C51.821 4.55473 51.9662 4.75023 52.064 4.96759C52.1618 5.18495 52.2101 5.41931 52.2058 5.65546C52.2055 5.89278 52.1554 6.1277 52.0586 6.34669C51.9618 6.56569 51.8201 6.76445 51.6416 6.93154C51.4632 7.09863 51.2515 7.23075 51.0188 7.32031C50.7861 7.40986 50.537 7.45509 50.2857 7.45338H50.2802ZM48.7934 19.0648V8.7254H51.7916V19.057L48.7934 19.0648Z" fill="white"/>
<path d="M54.6692 19.0648V3.98187H57.6673V19.0648H54.6692Z" fill="white"/>
<path d="M65.2494 19.2927C64.5186 19.3119 63.7921 19.1816 63.1198 18.9106C62.4474 18.6396 61.8451 18.2344 61.3542 17.7228C60.3552 16.6786 59.8156 15.3138 59.8455 13.9067C59.8084 12.5009 60.3491 11.136 61.3542 10.0984C61.8415 9.58117 62.4426 9.17076 63.1154 8.89598C63.7883 8.62121 64.5166 8.48871 65.2494 8.50778C65.7608 8.48674 66.2716 8.56152 66.7523 8.72781C67.2329 8.89411 67.674 9.14862 68.05 9.47668V3.98187H71.0482V19.0648H68.05V18.3109C67.3515 18.9672 66.4179 19.2945 65.2494 19.2927ZM65.6855 16.7021C66.1489 16.7142 66.6081 16.6165 67.0212 16.4178C67.4342 16.2192 67.788 15.9259 68.05 15.5648V12.1969C67.7841 11.8411 67.4289 11.5531 67.0163 11.3587C66.6037 11.1643 66.1464 11.0696 65.6855 11.0829C65.3131 11.073 64.9431 11.1421 64.6027 11.2851C64.2623 11.4281 63.9603 11.6414 63.7187 11.9093C63.2036 12.4528 62.9287 13.1621 62.9507 13.8912C62.9312 14.6269 63.2054 15.3427 63.7187 15.8964C63.9632 16.1601 64.2662 16.3697 64.6061 16.5103C64.946 16.6509 65.3146 16.719 65.6855 16.7098V16.7021Z" fill="white"/>
<path d="M83.0432 17.7435C81.95 18.7375 80.4914 19.2929 78.9739 19.2929C77.4563 19.2929 75.9978 18.7375 74.9045 17.7435C74.3705 17.2408 73.9468 16.6434 73.6577 15.9857C73.3686 15.3279 73.2197 14.6228 73.2197 13.9106C73.2197 13.1985 73.3686 12.4933 73.6577 11.8356C73.9468 11.1779 74.3705 10.5805 74.9045 10.0777C75.9911 9.07157 77.4522 8.50797 78.9739 8.50797C80.4956 8.50797 81.9566 9.07157 83.0432 10.0777C83.5773 10.5805 84.001 11.1779 84.2901 11.8356C84.5792 12.4933 84.728 13.1985 84.728 13.9106C84.728 14.6228 84.5792 15.3279 84.2901 15.9857C84.001 16.6434 83.5773 17.2408 83.0432 17.7435ZM78.9753 16.6477C79.3354 16.6544 79.693 16.5886 80.0241 16.4546C80.3552 16.3206 80.6522 16.1214 80.8954 15.8705C81.1589 15.6051 81.3643 15.2931 81.4998 14.9526C81.6354 14.6121 81.6985 14.2496 81.6854 13.886C81.6998 13.5258 81.6372 13.1665 81.5015 12.8296C81.3658 12.4927 81.1597 12.185 80.8954 11.9249C80.6533 11.6726 80.3565 11.4725 80.0251 11.3384C79.6938 11.2043 79.3357 11.1392 78.9753 11.1477C78.6074 11.1381 78.2416 11.2024 77.9021 11.3364C77.5625 11.4704 77.257 11.671 77.0057 11.9249C76.4851 12.4569 76.209 13.1621 76.2377 13.886C76.2113 14.6166 76.4867 15.3282 77.0057 15.8705C77.2582 16.1229 77.5639 16.3226 77.9032 16.4564C78.2424 16.5903 78.6077 16.6555 78.9753 16.6477Z" fill="white"/>
<path d="M90.4797 19.2927C88.4097 19.2927 86.9074 18.6312 85.9729 17.3083L88.0302 15.6554C88.555 16.4551 89.3715 16.8549 90.4797 16.8549C90.7764 16.8635 91.0704 16.7992 91.3328 16.6684C91.4416 16.6169 91.5325 16.5371 91.5947 16.4384C91.6569 16.3397 91.6879 16.2262 91.684 16.1114C91.685 16.0044 91.6574 15.8989 91.6036 15.8047C91.5499 15.7104 91.4719 15.6306 91.3767 15.5725C91.0237 15.3536 90.63 15.1998 90.2164 15.1191L89.3935 14.9326C88.5116 14.7525 87.7099 14.3201 87.0976 13.6943C86.5866 13.1153 86.3286 12.3741 86.3761 11.6217C86.3761 11.1861 86.4825 10.7563 86.6871 10.3658C86.8917 9.97533 87.1889 9.63471 87.5556 9.37044C88.3975 8.76976 89.4337 8.46308 90.488 8.50256C92.1667 8.50256 93.4285 9.08115 94.2734 10.2383L92.3039 11.7461C92.0921 11.4664 91.8131 11.2381 91.4898 11.0801C91.1665 10.922 90.8081 10.8386 90.4441 10.8368C90.1757 10.8313 89.9109 10.8958 89.6788 11.0233C89.5782 11.0721 89.4941 11.1464 89.4359 11.238C89.3778 11.3296 89.3479 11.4347 89.3496 11.5414C89.3496 11.9559 89.7089 12.2513 90.4221 12.43L91.4508 12.7202C93.5666 13.2556 94.6245 14.3229 94.6245 15.9222C94.635 16.3835 94.534 16.841 94.3292 17.2598C94.1243 17.6787 93.821 18.0479 93.4423 18.3393C92.6107 18.9874 91.5573 19.3264 90.4797 19.2927Z" fill="white"/>
<path d="M102.366 19.1891C101.086 19.1891 100.058 18.8721 99.2825 18.2383C98.5071 17.6044 98.1167 16.6787 98.1112 15.4611V11.2124H95.4641V8.72535H98.1112V5.61655H101.129V8.72535H104.42V11.2046H101.129V14.8834C101.129 15.5051 101.257 15.9507 101.521 16.2279C101.692 16.3691 101.89 16.4769 102.106 16.5454C102.321 16.6138 102.548 16.6415 102.774 16.6269C103.3 16.6302 103.819 16.51 104.283 16.2772L105.18 18.5906C104.309 19.0073 103.342 19.2129 102.366 19.1891Z" fill="white"/>
<path d="M111.646 19.2928C110.884 19.315 110.124 19.1951 109.411 18.94C108.698 18.6848 108.045 18.2994 107.49 17.8057C106.393 16.8126 105.844 15.5104 105.844 13.899C105.824 13.1861 105.96 12.4769 106.243 11.8158C106.526 11.1547 106.951 10.556 107.49 10.057C108.027 9.54576 108.669 9.14399 109.377 8.87662C110.084 8.60924 110.843 8.48195 111.605 8.50264C113.021 8.46239 114.398 8.94361 115.445 9.84461C116.478 10.7254 116.996 11.9724 116.998 13.5855C117.005 13.9099 116.99 14.2344 116.954 14.557H108.757C108.788 14.8695 108.888 15.1724 109.05 15.4463C109.212 15.7202 109.433 15.9591 109.698 16.1477C110.276 16.5256 110.965 16.7206 111.668 16.7047C112.948 16.7047 113.889 16.2729 114.49 15.4094L116.723 16.9793C115.599 18.5216 113.906 19.2928 111.646 19.2928ZM108.867 12.6399H113.986C113.938 12.3708 113.835 12.1132 113.681 11.8823C113.527 11.6514 113.325 11.4519 113.089 11.2954C112.628 10.9899 112.077 10.8311 111.514 10.842C110.918 10.8372 110.334 10.9946 109.83 11.2954C109.579 11.4435 109.363 11.6397 109.198 11.8713C109.032 12.1029 108.919 12.3647 108.867 12.6399Z" fill="white"/>
<path d="M119.197 19.0647V8.72535H122.195V9.96628C122.41 9.55418 122.754 9.21481 123.18 8.99478C123.651 8.73512 124.187 8.59916 124.733 8.601C125.163 8.5933 125.592 8.65642 126 8.78753L125.542 11.4611C125.247 11.3647 124.935 11.3225 124.623 11.3367C123.501 11.3367 122.703 11.7228 122.195 12.4948V19.0647H119.197Z" fill="white"/>
<defs>
<linearGradient id="paint0_linear_347:3157" x1="13.0131" y1="25.0052" x2="1.98925" y2="-0.828049" gradientUnits="userSpaceOnUse">
<stop stop-color="#81449A"/>
<stop offset="1" stop-color="#ED247E"/>
</linearGradient>
</defs>
</svg>
