<svg width="951" height="1000" viewBox="0 0 951 1000" fill="none" xmlns="http://www.w3.org/2000/svg">
<g clip-path="url(#clip0_486:76)">
<path d="M576.805 1049.67H464.204C395.45 1049.67 329.512 1023.85 280.895 977.9C232.279 931.946 204.966 869.62 204.966 804.631C205.032 746.164 227.855 689.763 269.086 646.178C310.317 602.593 367.072 574.872 428.536 568.298V200.74C428.536 180.578 420.062 161.241 404.979 146.984C389.895 132.726 369.438 124.717 348.107 124.717C326.776 124.717 306.318 132.726 291.235 146.984C276.151 161.241 267.678 180.578 267.678 200.74V597.385C267.678 605.304 264.349 612.898 258.425 618.498C252.501 624.097 244.467 627.243 236.089 627.243C227.711 627.243 219.676 624.097 213.752 618.498C207.828 612.898 204.5 605.304 204.5 597.385V200.74C204.5 164.74 219.63 130.214 246.561 104.757C273.493 79.3012 310.02 65 348.107 65C386.194 65 422.721 79.3012 449.652 104.757C476.584 130.214 491.714 164.74 491.714 200.74V567.306H576.805C595.784 566.792 614.679 569.881 632.373 576.391C650.067 582.901 666.199 592.7 679.816 605.207C693.432 617.714 704.257 632.676 711.648 649.207C719.039 665.738 722.848 683.502 722.848 701.449C722.848 719.396 719.039 737.16 711.648 753.691C704.257 770.222 693.432 785.184 679.816 797.691C666.199 810.198 650.067 819.996 632.373 826.507C614.679 833.017 595.784 836.106 576.805 835.592H570.511C532.896 835.533 496.837 821.391 470.228 796.261C443.62 771.13 428.628 737.058 428.536 701.504V629.226C383.899 635.567 343.157 656.856 313.738 689.215C284.318 721.574 268.179 762.847 268.26 805.513C268.322 854.616 288.986 901.691 325.719 936.412C362.453 971.133 412.256 990.665 464.204 990.724H576.805C656.967 990.724 733.846 960.624 790.528 907.046C847.211 853.468 879.055 780.8 879.055 705.03C879.055 629.259 847.211 556.591 790.528 503.013C733.846 449.435 656.967 419.335 576.805 419.335C568.427 419.335 560.393 416.19 554.469 410.59C548.544 404.991 545.216 397.396 545.216 389.477C545.216 381.558 548.544 373.963 554.469 368.364C560.393 362.764 568.427 359.618 576.805 359.618C673.661 359.618 766.55 395.987 835.037 460.723C903.524 525.458 942 613.259 942 704.809C942 796.36 903.524 884.16 835.037 948.896C766.55 1013.63 673.661 1050 576.805 1050V1049.67ZM492.063 627.023V701.504C492.094 721.238 500.41 740.155 515.184 754.099C529.958 768.043 549.982 775.875 570.86 775.875H577.155C597.513 775.134 616.777 766.969 630.904 753.092C645.031 739.216 652.922 720.707 652.922 701.449C652.922 682.191 645.031 663.682 630.904 649.805C616.777 635.929 597.513 627.763 577.155 627.023H492.063Z" fill="url(#paint0_linear_486:76)" fill-opacity="0.5"/>
</g>
<defs>
<linearGradient id="paint0_linear_486:76" x1="757.479" y1="1128.45" x2="288.377" y2="30.0632" gradientUnits="userSpaceOnUse">
<stop stop-color="#81449A"/>
<stop offset="1" stop-color="#ED247E"/>
</linearGradient>
<clipPath id="clip0_486:76">
<rect width="951" height="1000" fill="white"/>
</clipPath>
</defs>
</svg>
